<svg width="18" height="18" viewBox="0 0 18 18" fill="none" xmlns="http://www.w3.org/2000/svg">
<g clip-path="url(#clip0_5682_17391)">
<path d="M9 15.75C12.7279 15.75 15.75 12.7279 15.75 9C15.75 5.27208 12.7279 2.25 9 2.25C5.27208 2.25 2.25 5.27208 2.25 9C2.25 12.7279 5.27208 15.75 9 15.75Z" stroke="black" stroke-width="1.125" stroke-linecap="round" stroke-linejoin="round"/>
<path d="M8.4375 8.4375C8.58668 8.4375 8.72976 8.49676 8.83525 8.60225C8.94074 8.70774 9 8.85082 9 9V11.8125C9 11.9617 9.05926 12.1048 9.16475 12.2102C9.27024 12.3157 9.41332 12.375 9.5625 12.375" stroke="black" stroke-width="1.125" stroke-linecap="round" stroke-linejoin="round"/>
<path d="M8.71875 6.75C9.18474 6.75 9.5625 6.37224 9.5625 5.90625C9.5625 5.44026 9.18474 5.0625 8.71875 5.0625C8.25276 5.0625 7.875 5.44026 7.875 5.90625C7.875 6.37224 8.25276 6.75 8.71875 6.75Z" fill="black"/>
</g>
<defs>
<clipPath id="clip0_5682_17391">
<rect width="18" height="18" fill="white"/>
</clipPath>
</defs>
</svg>
