<svg width="1168" height="465" viewBox="0 0 1168 465" fill="none" xmlns="http://www.w3.org/2000/svg">
<path d="M0 40.0171C0 62.118 17.9163 80.0343 40.0171 80.0343C62.118 80.0343 80.0343 62.118 80.0343 40.0171C80.0343 17.9163 62.118 0 40.0171 0C17.9163 0 0 17.9163 0 40.0171ZM992.425 421.18L917.393 377.86V464.5L992.425 421.18ZM40.0171 47.5203H1130.48V32.5139H40.0171V47.5203ZM1152.99 70.03V203.061H1168V70.03H1152.99ZM1130.48 225.571H70.03V240.577H1130.48V225.571ZM32.5139 263.087V391.167H47.5203V263.087H32.5139ZM70.03 428.684H924.896V413.677H70.03V428.684ZM32.5139 391.167C32.5139 411.887 49.3104 428.684 70.03 428.684V413.677C57.5983 413.677 47.5203 403.599 47.5203 391.167H32.5139ZM70.03 225.571C49.3105 225.571 32.5139 242.367 32.5139 263.087H47.5203C47.5203 250.655 57.5983 240.577 70.03 240.577V225.571ZM1152.99 203.061C1152.99 215.493 1142.92 225.571 1130.48 225.571V240.577C1151.2 240.577 1168 223.781 1168 203.061H1152.99ZM1130.48 47.5203C1142.92 47.5203 1152.99 57.5983 1152.99 70.03H1168C1168 49.3104 1151.2 32.5139 1130.48 32.5139V47.5203Z" fill="url(#paint0_linear_6431_12742)"/>
<defs>
<linearGradient id="paint0_linear_6431_12742" x1="40.0171" y1="230.599" x2="1160.5" y2="230.599" gradientUnits="userSpaceOnUse">
<stop stop-color="#227CBF"/>
<stop offset="1" stop-color="#47B65C"/>
</linearGradient>
</defs>
</svg>
